<?xml version="1.0" standalone="no"?>
<!DOCTYPE svg PUBLIC "-//W3C//DTD SVG 20010904//EN"
 "http://www.w3.org/TR/2001/REC-SVG-20010904/DTD/svg10.dtd">
<svg version="1.0" xmlns="http://www.w3.org/2000/svg"
 width="1024.000000pt" height="1536.000000pt" viewBox="0 0 1024.000000 1536.000000"
 preserveAspectRatio="xMidYMid meet">

<g transform="translate(0.000000,1536.000000) scale(0.100000,-0.100000)"
fill="#000000" stroke="none">
<path d="M5395 13004 c-827 -283 -1282 -434 -1305 -434 -12 0 -47 -12 -78 -26
-31 -15 -196 -73 -365 -130 -169 -57 -317 -108 -327 -114 -14 -8 -20 -21 -20
-46 0 -32 4 -37 43 -53 23 -11 173 -52 334 -92 233 -57 292 -76 291 -88 -1 -9
0 -33 0 -53 2 -31 6 -38 22 -38 22 0 27 16 8 22 -8 3 -4 9 10 17 14 7 22 21
22 38 0 21 4 24 23 20 12 -3 153 -38 312 -77 160 -40 300 -74 311 -77 20 -4
23 2 37 84 9 48 19 112 23 142 4 34 15 63 30 80 l23 26 -5 -130 c-4 -129 -12
-288 -20 -397 -4 -57 -27 -158 -40 -179 -4 -7 1 -9 15 -4 34 11 24 -1 -26 -31
-47 -27 -153 -120 -153 -134 0 -3 20 12 44 34 24 23 63 51 87 64 l44 23 -26
-23 c-31 -28 -28 -58 4 -51 12 3 -7 -12 -42 -33 -95 -57 -143 -105 -137 -138
8 -43 16 -49 37 -27 59 63 231 156 374 201 97 31 105 32 285 32 197 0 242 -7
405 -58 78 -24 106 -28 210 -28 112 0 130 3 262 41 78 23 195 52 260 63 196
36 504 29 654 -16 9 -2 35 -31 58 -64 23 -33 45 -60 48 -60 2 0 -10 21 -29 48
-19 26 -37 52 -41 58 -9 15 127 -24 213 -60 92 -39 159 -79 212 -126 l46 -40
15 31 c8 17 12 40 10 50 -8 30 -80 89 -147 121 -50 23 -50 30 0 11 23 -9 8 49
-16 63 -16 8 -19 13 -9 14 18 0 109 -55 127 -78 8 -10 12 -11 12 -3 0 22 -60
68 -146 111 -83 42 -108 59 -58 40 14 -6 27 -10 28 -10 2 0 -3 23 -10 51 -7
28 -21 95 -29 148 -9 53 -20 110 -25 126 -17 56 -35 365 -22 365 10 0 43 -98
58 -175 9 -49 18 -91 19 -93 4 -5 167 39 435 116 307 89 850 250 870 259 8 3
19 7 24 7 17 2 29 33 22 59 -3 15 -19 33 -34 41 -26 13 -437 135 -827 246 -99
28 -263 75 -365 105 -102 30 -225 65 -275 79 -49 13 -137 38 -195 54 -328 94
-1030 283 -1047 281 -4 0 -251 -83 -548 -185z m782 61 c109 -31 367 -102 573
-160 568 -157 641 -178 636 -182 -2 -2 -111 26 -242 63 -279 77 -642 178 -939
258 -115 31 -219 61 -230 66 -48 21 17 6 202 -45z m1818 -510 c297 -84 570
-162 608 -171 37 -10 67 -21 67 -25 0 -7 -33 2 -755 208 -280 80 -512 148
-515 151 -8 8 28 -2 595 -163z m-721 -288 c8 -12 17 -33 20 -47 6 -22 5 -21
-10 5 -9 17 -33 48 -53 69 l-36 39 33 -22 c18 -13 39 -33 46 -44z m-681 -234
c-5 -12 -2 -15 10 -10 12 4 15 1 12 -15 -3 -11 -2 -18 1 -15 8 8 33 -16 28
-25 -3 -4 3 -19 12 -33 9 -14 13 -25 8 -25 -4 0 -3 -5 4 -12 16 -16 15 -58 0
-59 -9 0 -9 -2 -2 -5 6 -3 9 -16 6 -31 -3 -17 1 -29 12 -35 9 -5 16 -20 16
-33 0 -14 5 -25 11 -25 5 0 7 -4 4 -10 -3 -5 -1 -10 4 -10 18 0 12 -18 -6 -23
-10 -3 -2 -5 17 -6 128 -7 82 -16 -81 -17 -107 -1 -185 2 -175 6 14 5 23 24
33 71 22 109 24 119 13 119 -13 0 -4 62 16 115 9 22 15 41 15 43 -6 15 1 32
11 26 7 -5 9 -2 6 7 -4 10 1 15 13 16 13 1 16 -3 12 -14z m216 -439 c2 -2 -22
-4 -54 -4 -52 0 -57 -2 -40 -13 20 -15 13 -36 -13 -39 -9 -1 10 -4 43 -8 53
-6 48 -7 -46 -8 -58 -1 -135 -4 -170 -7 l-64 -4 60 13 c39 9 50 14 31 15 -23
1 -27 5 -23 21 4 17 0 20 -31 20 -53 0 -33 10 39 20 58 7 258 3 268 -6z"/>
<path d="M6613 11533 c15 -2 37 -2 50 0 12 2 0 4 -28 4 -27 0 -38 -2 -22 -4z"/>
<path d="M7351 11874 c0 -11 3 -14 6 -6 3 7 2 16 -1 19 -3 4 -6 -2 -5 -13z"/>
<path d="M3932 11845 c-19 -19 -24 -37 -28 -92 -3 -37 -7 -74 -10 -82 -3 -10
2 -12 18 -8 l23 6 -22 -18 c-15 -13 -19 -21 -11 -29 7 -7 7 -29 -2 -74 -7 -35
-15 -85 -18 -113 -5 -46 -6 -47 -13 -20 -11 47 -10 -221 1 -298 12 -79 24
-101 71 -127 19 -10 33 -23 32 -29 -4 -17 38 -13 58 5 10 9 15 22 12 30 -3 8
5 16 20 19 39 10 52 55 52 180 0 112 -5 174 -25 302 -6 40 -9 81 -7 90 3 11 6
7 7 -12 2 -24 5 -19 11 20 5 28 11 67 15 88 6 35 -13 129 -25 123 -8 -4 -42
32 -38 42 1 4 -11 8 -26 10 l-28 3 20 -20 c17 -17 21 -34 21 -91 0 -49 4 -70
13 -71 6 -1 -15 -5 -48 -8 -42 -5 -64 -3 -72 5 -15 15 -17 28 -3 19 6 -4 10 8
10 29 0 20 -4 36 -9 36 -16 0 13 62 37 77 12 9 22 19 22 24 0 17 -35 7 -58
-16z m173 -137 c2 -41 0 -46 -12 -36 -10 8 -12 23 -8 52 5 30 3 37 -4 26 -9
-13 -11 -12 -11 6 0 11 3 24 7 28 12 12 26 -25 28 -76z m-85 -68 c-14 -4 -41
-8 -60 -8 l-35 1 40 7 c57 10 87 10 55 0z m-4 -42 c5 -7 3 -8 -7 -3 -12 7 -12
6 -1 -8 13 -15 16 -189 4 -267 -8 -58 -22 -29 -23 48 -1 54 -3 69 -9 52 -5
-17 -8 3 -8 60 0 57 3 77 8 60 7 -20 8 -16 9 23 1 45 12 60 27 35z"/>
<path d="M4101 11484 c0 -11 3 -14 6 -6 3 7 2 16 -1 19 -3 4 -6 -2 -5 -13z"/>
<path d="M6538 11343 c18 -2 45 -2 60 0 15 2 0 4 -33 4 -33 0 -45 -2 -27 -4z"/>
<path d="M6413 11325 c-84 -26 -208 -120 -242 -184 -7 -12 18 9 56 47 72 73
145 117 228 138 28 7 39 12 25 12 -14 1 -44 -5 -67 -13z"/>
<path d="M6648 11333 c6 -2 18 -2 25 0 6 3 1 5 -13 5 -14 0 -19 -2 -12 -5z"/>
<path d="M5045 11291 c-53 -25 -182 -128 -172 -137 2 -2 27 19 56 46 30 28 86
66 125 85 39 19 67 35 61 35 -5 0 -37 -13 -70 -29z"/>
<path d="M4547 11291 c-4 -17 -3 -21 5 -13 5 5 8 16 6 23 -3 8 -7 3 -11 -10z"/>
<path d="M5410 11300 c8 -5 20 -10 25 -10 6 0 3 5 -5 10 -8 5 -19 10 -25 10
-5 0 -3 -5 5 -10z"/>
<path d="M6437 11299 c-184 -43 -316 -260 -279 -459 26 -144 109 -256 230
-313 87 -40 217 -49 319 -22 114 31 215 129 249 240 35 118 11 283 -56 380
-99 144 -288 215 -463 174z m228 -132 c72 -24 135 -80 170 -151 15 -30 25 -42
25 -30 0 11 -7 29 -15 40 -17 23 -19 38 -3 28 8 -5 9 -1 5 12 -11 30 32 -25
49 -63 16 -37 20 -108 4 -83 -6 10 -10 11 -10 3 0 -7 -7 -13 -15 -13 -10 0
-15 -10 -16 -27 0 -16 -4 -37 -9 -48 l-9 -20 0 20 c-1 17 -4 15 -16 -9 -8 -15
-15 -39 -15 -53 0 -22 2 -23 15 -9 8 8 15 20 15 27 0 10 3 10 12 1 19 -19 -19
-100 -72 -153 -83 -83 -218 -112 -340 -72 -100 32 -190 140 -203 243 -3 25 -4
36 -1 25 7 -25 24 -44 24 -26 0 22 20 1 45 -47 45 -87 134 -143 240 -149 61
-4 76 -1 117 21 134 72 155 125 126 319 -10 68 -19 95 -40 121 -16 19 -28 38
-28 42 0 4 12 -3 28 -17 l27 -24 -24 27 c-14 16 -27 26 -29 23 -3 -3 -12 1
-21 9 -26 21 -80 36 -136 36 -88 0 -174 -46 -240 -129 -40 -52 -55 -60 -35
-19 11 22 10 22 -4 4 -9 -11 -16 -24 -16 -29 0 -4 -4 -5 -10 -2 -5 3 -10 -2
-11 -12 0 -11 -3 -13 -6 -5 -7 19 17 73 30 65 6 -3 7 -1 3 6 -4 7 5 26 23 47
17 19 31 32 31 29 0 -3 17 3 39 14 21 11 42 17 46 13 5 -4 5 -2 2 4 -9 15 16
26 78 34 61 8 93 4 170 -23z m90 -17 c3 -5 -10 -1 -29 11 -20 12 -36 23 -36
25 0 7 58 -25 65 -36z m73 -86 c-4 -3 -12 5 -18 18 -12 22 -12 22 6 6 10 -10
15 -20 12 -24z m-91 -36 c17 -17 33 -44 36 -62 11 -69 -51 -133 -118 -120 -19
3 -35 10 -35 14 0 4 -11 19 -25 34 -19 21 -25 38 -25 75 0 55 14 78 55 91 42
12 75 3 112 -32z m60 -190 c-3 -8 -6 -5 -6 6 -1 11 2 17 5 13 3 -3 4 -12 1
-19z m70 -30 c-3 -8 -6 -5 -6 6 -1 11 2 17 5 13 3 -3 4 -12 1 -19z"/>
<path d="M6856 11037 c3 -10 9 -15 12 -12 3 3 0 11 -7 18 -10 9 -11 8 -5 -6z"/>
<path d="M6770 10695 c-13 -14 -19 -25 -14 -25 8 1 50 50 41 50 -2 0 -14 -11
-27 -25z"/>
<path d="M6751 11306 c2 -2 15 -9 29 -15 24 -11 24 -11 6 3 -16 13 -49 24 -35
12z"/>
<path d="M5121 11284 c-135 -49 -250 -189 -282 -342 -37 -180 43 -367 186
-434 202 -94 441 2 547 221 31 63 33 72 33 181 0 103 -3 121 -26 170 -38 81
-100 144 -174 181 -54 26 -79 32 -152 35 -64 3 -100 0 -132 -12z m134 -115
c-16 -4 -46 -11 -66 -14 -53 -8 -128 -62 -162 -117 -18 -29 -37 -48 -48 -48
-23 0 -23 2 0 48 45 87 141 141 251 140 47 0 51 -1 25 -9z m62 -5 c-3 -3 -12
-4 -19 -1 -8 3 -5 6 6 6 11 1 17 -2 13 -5z m129 -35 c8 -13 -21 1 -51 26 -19
15 -18 15 12 1 17 -9 35 -21 39 -27z m-76 16 c17 -9 30 -18 30 -21 0 -4 -59
23 -69 32 -10 9 13 3 39 -11z m-320 2 c0 -2 -17 -19 -37 -38 l-38 -34 34 38
c33 34 41 42 41 34z m400 -60 c26 7 90 -139 90 -207 0 -56 -27 -135 -63 -182
-48 -63 -54 -76 -21 -48 l29 25 -25 -29 c-14 -15 -58 -44 -99 -64 -63 -30 -83
-35 -145 -35 -109 0 -201 52 -242 137 -14 29 -13 28 21 -9 39 -42 38 -31 -1
22 -13 17 -24 38 -24 45 0 7 11 -4 25 -25 14 -20 32 -37 39 -37 7 0 32 -14 55
-30 61 -44 127 -56 193 -34 29 9 69 27 88 39 42 27 78 65 61 65 -6 0 -14 -7
-17 -15 -4 -8 -11 -15 -16 -15 -6 0 4 16 21 35 38 44 53 95 49 165 l-3 55 -23
-42 c-12 -24 -27 -43 -32 -43 -5 0 -12 -9 -15 -20 -7 -23 -55 -28 -55 -6 0 8
-11 14 -25 14 -14 0 -28 2 -31 5 -3 2 -6 37 -7 77 -2 67 0 73 26 96 24 20 35
23 65 18 21 -4 45 -14 56 -23 18 -16 18 -15 1 19 -16 31 -16 33 -2 21 21 -17
21 -9 2 32 -15 30 -15 31 0 12 9 -11 20 -19 25 -18z m110 -268 l-11 -24 6 25
c2 14 6 54 7 90 l2 65 3 -66 c2 -36 -1 -76 -7 -90z"/>
<path d="M5462 10770 c-18 -29 -15 -48 4 -22 8 12 14 27 12 32 -2 6 -9 1 -16
-10z"/>
<path d="M5491 10763 c-10 -26 -10 -27 4 -9 8 11 15 23 15 28 0 15 -7 8 -19
-19z"/>
<path d="M5471 11277 c2 -2 29 -26 59 -53 33 -30 46 -38 32 -20 -20 27 -79 76
-91 76 -2 0 -2 -1 0 -3z"/>
<path d="M5580 11166 c0 -2 8 -10 18 -17 15 -13 16 -12 3 4 -13 16 -21 21 -21
13z"/>
<path d="M960 11119 c0 -26 55 -225 125 -454 20 -66 85 -282 145 -480 116
-388 308 -998 390 -1240 27 -82 50 -157 50 -167 0 -10 -10 -20 -25 -24 -30 -7
-82 -65 -91 -101 -4 -14 -3 -59 2 -99 10 -78 8 -84 -37 -84 -11 0 -18 -4 -14
-10 3 -5 13 -6 23 -3 13 4 13 2 -3 -10 -19 -15 -18 -15 18 -22 31 -6 41 -15
58 -47 11 -22 23 -61 26 -88 5 -44 3 -49 -21 -65 -17 -12 -37 -16 -59 -12 -17
3 -26 3 -19 0 6 -2 12 -11 12 -18 0 -9 17 -16 48 -20 26 -4 54 -9 62 -11 24
-7 52 -53 57 -95 9 -62 -36 -96 -90 -68 -19 10 -20 9 -9 -2 7 -8 40 -25 73
-39 57 -23 63 -29 79 -73 23 -60 32 -71 76 -92 19 -9 32 -20 29 -26 -4 -5 5
-5 20 1 35 13 95 13 95 -1 0 -7 11 -9 31 -5 28 5 31 3 46 -32 9 -20 16 -44 15
-54 -1 -31 33 -49 105 -55 94 -8 133 11 133 64 0 21 -20 94 -45 163 l-45 127
49 50 c68 71 116 173 147 318 22 105 25 138 22 265 -3 131 -6 150 -28 195 -31
62 -67 81 -169 91 l-74 7 24 -34 c37 -53 87 -108 92 -102 3 3 13 -10 22 -27
l17 -32 -23 16 c-13 9 -31 16 -41 16 -46 0 -67 22 -79 79 -16 83 -44 111 -131
130 -58 13 -108 0 -172 -47 l-49 -36 -23 29 c-26 33 -84 167 -145 338 -142
392 -302 855 -489 1414 -82 243 -153 451 -160 462 -11 22 -50 29 -50 10z m47
-51 c-3 -8 -6 -5 -6 6 -1 11 2 17 5 13 3 -3 4 -12 1 -19z m20 -60 c-3 -8 -6
-5 -6 6 -1 11 2 17 5 13 3 -3 4 -12 1 -19z m81 -248 c0 -8 -8 8 -18 35 -10 28
-18 57 -18 65 0 8 8 -7 18 -35 10 -27 18 -57 18 -65z m70 -220 c0 -8 -8 8 -18
35 -10 28 -18 57 -18 65 0 8 8 -7 18 -35 10 -27 18 -57 18 -65z m22 -55 c0 -5
-5 -3 -10 5 -5 8 -10 20 -10 25 0 6 5 3 10 -5 5 -8 10 -19 10 -25z m55 -158
c26 -76 45 -140 43 -143 -5 -4 -98 264 -98 280 0 18 8 -1 55 -137z m125 -371
c39 -115 69 -210 67 -213 -3 -2 -12 17 -20 44 -8 26 -40 120 -71 207 -52 148
-63 187 -51 175 2 -3 37 -99 75 -213z m77 -248 c-3 -8 -6 -5 -6 6 -1 11 2 17
5 13 3 -3 4 -12 1 -19z m47 -111 c14 -37 22 -67 18 -67 -6 0 -45 98 -59 150
-10 36 17 -19 41 -83z m61 -182 c19 -54 35 -106 34 -114 0 -14 -1 -14 -6 -1
-2 8 -17 49 -33 90 -28 75 -46 140 -36 129 3 -3 21 -50 41 -104z m80 -238 c8
-20 11 -37 6 -37 -5 0 -12 11 -15 24 -3 13 -9 32 -13 43 -11 32 6 8 22 -30z
m49 -123 c3 -8 2 -12 -4 -9 -6 3 -10 10 -10 16 0 14 7 11 14 -7z m443 -196
c-3 -8 -6 -5 -6 6 -1 11 2 17 5 13 3 -3 4 -12 1 -19z m-131 -6 c82 -65 59
-206 -37 -227 -61 -14 -129 49 -129 120 0 88 106 156 166 107z m-253 -172 c79
-47 77 -154 -3 -195 -82 -43 -160 20 -160 128 0 37 5 49 26 66 34 27 92 27
137 1z m570 -10 c3 -11 1 -20 -4 -20 -5 0 -9 9 -9 20 0 11 2 20 4 20 2 0 6 -9
9 -20z m77 -63 c0 -8 -7 -20 -15 -27 -13 -11 -15 -7 -15 29 0 38 2 41 15 27 8
-8 15 -21 15 -29z m27 -19 c-2 -13 -4 -3 -4 22 0 25 2 35 4 23 2 -13 2 -33 0
-45z m-540 -143 c33 -23 48 -83 33 -129 -16 -50 -43 -66 -113 -66 -50 0 -61 4
-82 26 -27 29 -34 98 -14 135 23 44 132 64 176 34z m59 -220 c57 -39 55 -124
-3 -175 -33 -29 -41 -32 -85 -28 -55 6 -83 26 -104 78 -30 70 -1 117 81 131
66 11 89 10 111 -6z m64 -282 c17 -22 21 -37 17 -68 -10 -74 -84 -109 -140
-65 -42 33 -48 120 -9 120 9 0 31 9 47 20 40 27 60 25 85 -7z"/>
<path d="M6134 11075 c-26 -62 -36 -136 -32 -221 8 -154 102 -298 251 -383
170 -97 420 -76 572 47 68 55 136 190 134 266 0 21 -7 6 -19 -43 -43 -161
-153 -266 -322 -306 -230 -54 -462 54 -566 264 -36 74 -37 77 -36 191 0 95 4
124 22 168 12 28 19 52 16 52 -3 0 -12 -16 -20 -35z"/>
<path d="M7588 11003 c-17 -42 -22 -242 -8 -351 25 -210 70 -354 127 -414 23
-24 24 -29 12 -44 -13 -16 -12 -16 9 -5 25 13 27 22 11 38 -8 8 -6 14 10 22
27 15 57 77 44 94 -14 16 -23 97 -12 97 4 0 15 -12 22 -27 14 -26 14 -26 21
30 9 67 -2 197 -17 197 -5 0 -7 -12 -4 -28 3 -15 2 -34 -4 -42 -6 -12 -9 -9
-9 11 0 27 -24 68 -34 58 -10 -9 -11 -108 -3 -159 9 -58 -4 -28 -32 70 -32
115 -41 174 -41 262 0 45 -3 79 -6 75 -4 -3 -6 -61 -5 -128 0 -67 -2 -119 -5
-116 -10 10 -6 262 5 290 14 37 24 34 17 -5 -4 -30 -4 -29 6 5 7 20 15 37 20
37 5 0 5 -17 1 -37 -15 -72 -7 -303 10 -303 5 0 6 21 2 48 -6 42 -3 50 19 71
l25 23 6 -38 c10 -60 15 -74 27 -74 6 0 8 11 4 28 -4 15 -14 62 -22 105 -18
98 -48 179 -74 202 -11 10 -20 15 -20 10 0 -4 -11 0 -25 9 -37 24 -64 20 -77
-11z m28 -188 c11 -10 12 -15 3 -15 -8 0 -7 -6 4 -18 15 -17 15 -19 -2 -34
-18 -15 -19 -14 -25 14 -8 38 -8 68 0 68 3 0 12 -7 20 -15z m104 -410 c0 -5
-5 -3 -10 5 -5 8 -10 20 -10 25 0 6 5 3 10 -5 5 -8 10 -19 10 -25z"/>
<path d="M4408 10983 c-22 -26 -88 -163 -88 -182 1 -9 7 -3 16 14 l14 30 -5
-30 c-3 -16 -8 -38 -11 -47 -3 -10 -1 -18 5 -18 15 0 14 -27 -1 -33 -10 -4
-10 -8 1 -15 12 -9 12 -15 1 -41 -7 -17 -16 -28 -21 -26 -27 17 -21 -242 8
-315 10 -25 24 -54 30 -65 11 -17 14 -18 23 -5 9 12 10 11 5 -7 -3 -12 -1 -24
5 -28 5 -3 10 -3 10 0 0 7 47 271 56 318 3 15 1 27 -4 27 -5 0 -13 -25 -17
-57 -15 -118 -24 -97 -24 57 -1 139 7 248 25 393 7 50 -2 59 -28 30z m-37
-170 c-9 -16 -10 -16 -11 -1 0 9 3 25 7 35 7 16 8 17 11 1 2 -10 -1 -25 -7
-35z m-11 -514 c0 -6 -4 -7 -10 -4 -5 3 -10 11 -10 16 0 6 5 7 10 4 6 -3 10
-11 10 -16z"/>
<path d="M5663 10910 c0 -30 2 -43 4 -27 2 15 2 39 0 55 -2 15 -4 2 -4 -28z"/>
<path d="M7041 10944 c0 -11 3 -14 6 -6 3 7 2 16 -1 19 -3 4 -6 -2 -5 -13z"/>
<path d="M7052 10890 c0 -19 2 -27 5 -17 2 9 2 25 0 35 -3 9 -5 1 -5 -18z"/>
<path d="M4764 10783 c2 -97 3 -105 41 -180 45 -88 101 -137 195 -175 79 -31
231 -31 312 1 121 47 248 150 287 231 l12 25 -18 -25 c-118 -165 -330 -265
-501 -235 -135 23 -229 90 -283 201 -27 54 -34 83 -40 162 l-7 97 2 -102z"/>
<path d="M5651 10804 c0 -11 3 -14 6 -6 3 7 2 16 -1 19 -3 4 -6 -2 -5 -13z"/>
<path d="M4312 10760 c0 -14 2 -19 5 -12 2 6 2 18 0 25 -3 6 -5 1 -5 -13z"/>
<path d="M7571 10360 c0 -8 6 -28 14 -45 17 -39 18 -21 0 25 -7 19 -14 28 -14
20z"/>
<path d="M6240 10210 c-9 -5 -67 -19 -130 -32 -99 -19 -146 -23 -342 -23 -152
0 -220 -3 -205 -9 38 -17 391 -11 497 7 110 19 196 43 205 57 8 12 -5 12 -25
0z"/>
<path d="M4597 10159 c7 -7 15 -10 18 -7 3 3 -2 9 -12 12 -14 6 -15 5 -6 -5z"/>
<path d="M4654 10136 c11 -9 24 -16 30 -16 12 0 7 5 -24 19 -24 11 -24 11 -6
-3z"/>
<path d="M4740 10100 c8 -5 20 -10 25 -10 6 0 3 5 -5 10 -8 5 -19 10 -25 10
-5 0 -3 -5 5 -10z"/>
<path d="M7639 10005 c-6 -5 -384 -68 -539 -89 -489 -67 -1103 -96 -1595 -77
-298 11 -562 30 -710 51 -156 22 -211 31 -279 45 -91 19 -102 18 -47 -4 31
-12 39 -20 28 -24 -9 -3 -17 -1 -19 4 -2 6 -12 7 -27 1 -22 -8 -20 -10 23 -22
25 -7 49 -17 52 -22 7 -10 -28 -3 -103 22 -47 15 -54 15 -67 1 -14 -13 -12
-17 17 -34 18 -11 61 -31 97 -43 55 -19 60 -23 33 -23 -18 -1 -56 8 -85 19
-49 18 -51 18 -29 1 18 -14 20 -20 10 -23 -19 -7 59 -41 152 -67 484 -133
1727 -136 2524 -5 307 50 644 128 694 161 21 14 22 17 8 25 -10 5 -24 5 -34 0
-23 -12 -122 -21 -128 -12 -3 4 -17 6 -32 4 -16 -2 0 6 35 17 34 11 62 25 62
30 0 4 -8 6 -17 3 -17 -5 -17 -5 -1 6 9 6 15 17 12 25 -4 9 3 18 17 24 22 9
21 10 -12 10 -20 1 -38 -1 -40 -4z m-3249 -125 c0 -5 -7 -7 -15 -4 -8 4 -12
10 -9 15 6 11 24 2 24 -11z m2885 -71 c-27 -5 -57 -13 -66 -18 -36 -21 -286
-57 -449 -65 l-105 -5 125 18 c200 30 320 50 395 65 39 8 88 14 110 14 39 0
39 0 -10 -9z m-2467 -59 c16 -5 20 -9 10 -9 -10 -1 -18 -5 -18 -10 0 -5 8 -12
18 -14 9 -3 -5 -5 -33 -6 -64 -1 -139 18 -110 29 19 7 19 7 0 19 -16 10 -8 11
43 5 35 -3 76 -10 90 -14z m1825 -37 c-7 -2 -21 -2 -30 0 -10 3 -4 5 12 5 17
0 24 -2 18 -5z m-95 -10 c-10 -2 -28 -2 -40 0 -13 2 -5 4 17 4 22 1 32 -1 23
-4z m-105 -10 c-7 -2 -19 -2 -25 0 -7 3 -2 5 12 5 14 0 19 -2 13 -5z m-975
-10 c-21 -2 -57 -2 -80 0 -24 2 -7 4 37 4 44 0 63 -2 43 -4z m47 -34 c17 -6
15 -8 -10 -8 -53 -1 -137 12 -125 19 13 8 106 1 135 -11z"/>
<path d="M7520 9544 c-223 -27 -316 -79 -381 -210 -58 -118 -64 -178 -62 -684
3 -588 12 -651 117 -797 60 -84 75 -88 331 -88 234 0 315 11 315 44 0 9 3 27
5 41 l6 25 -11 -24 c-16 -37 -19 -22 -9 39 35 197 74 377 81 367 4 -7 5 3 1
22 -4 25 -3 32 5 27 8 -5 12 2 12 18 0 14 9 35 20 46 11 11 16 20 10 20 -5 0
-42 29 -82 64 -123 107 -168 220 -171 432 -2 156 13 215 78 301 43 58 120 111
194 133 25 8 25 8 -7 9 -30 1 -35 6 -53 49 -11 26 -28 64 -36 85 -26 61 -73
79 -213 83 -63 1 -131 0 -150 -2z m338 -80 c12 -8 22 -23 22 -34 0 -18 -3 -19
-20 -8 -11 7 -20 18 -20 24 0 7 -13 17 -30 23 -16 5 -30 13 -30 16 0 9 52 -6
78 -21z m-3 -95 c14 -14 37 -11 29 4 -4 6 1 4 11 -5 11 -10 17 -19 14 -22 -2
-2 -35 7 -74 20 -51 17 -59 22 -30 17 22 -3 44 -9 50 -14z m-541 0 c-5 -8 -1
-8 14 0 39 21 68 12 117 -33 43 -39 47 -47 42 -75 -6 -27 -77 -193 -120 -281
-13 -25 -90 -84 -95 -71 -1 4 -17 5 -36 3 -18 -2 -37 1 -40 7 -4 6 -16 11 -26
11 -15 0 -19 7 -18 28 0 15 -2 52 -6 82 -4 30 -3 73 2 95 8 32 10 35 11 13 1
-22 9 -31 45 -47 25 -11 72 -35 105 -54 l59 -35 16 39 c9 22 16 41 16 44 0 13
-62 58 -124 90 -101 53 -103 56 -76 100 13 20 41 50 63 66 41 30 63 38 51 18z
m439 4 c-7 -2 -19 -2 -25 0 -7 3 -2 5 12 5 14 0 19 -2 13 -5z m-8 -53 c4 -6
-5 -10 -20 -10 -15 0 -24 4 -20 10 3 6 12 10 20 10 8 0 17 -4 20 -10z m-105
-14 c0 -2 -8 -10 -17 -17 -16 -13 -17 -12 -4 4 13 16 21 21 21 13z m-75 -98
c-28 -51 -62 -181 -74 -281 l-8 -72 -2 69 c-1 96 45 255 91 314 19 23 17 12
-7 -30z m260 -1398 c-3 -5 -12 -10 -18 -10 -7 0 -6 4 3 10 19 12 23 12 15 0z"/>
<path d="M5788 9513 c237 -2 627 -2 865 0 237 1 43 2 -433 2 -476 0 -670 -1
-432 -2z"/>
<path d="M7118 9513 c6 -2 18 -2 25 0 6 3 1 5 -13 5 -14 0 -19 -2 -12 -5z"/>
<path d="M4508 9503 c72 -2 192 -2 265 0 72 1 13 3 -133 3 -146 0 -205 -2
-132 -3z"/>
<path d="M4220 9482 c-34 -37 -68 -122 -65 -165 1 -24 0 -28 -2 -9 -5 38 -10
39 -71 8 -136 -69 -201 -214 -202 -448 l0 -86 -51 -46 c-28 -25 -76 -61 -108
-80 l-57 -35 -65 25 c-35 13 -76 31 -91 39 -16 8 -28 10 -28 5 0 -5 16 -17 35
-26 20 -9 33 -19 31 -22 -3 -3 -12 1 -21 8 -20 16 -26 10 -18 -19 4 -17 8 -19
14 -9 6 8 9 9 9 1 0 -6 -38 -35 -84 -63 -46 -28 -93 -60 -105 -71 -11 -11 -21
-18 -21 -15 0 3 -12 -6 -26 -19 -28 -26 -58 -32 -69 -15 -3 6 -10 10 -15 10
-6 0 -1 -16 10 -35 26 -46 50 -186 50 -287 0 -126 -28 -211 -119 -360 l-23
-38 44 0 c97 0 216 95 257 206 12 30 21 61 21 68 0 17 26 39 79 66 60 30 283
169 301 188 12 13 10 12 -12 -1 -38 -24 -50 -21 -14 2 17 11 33 18 38 15 4 -3
37 16 73 41 35 25 90 55 122 66 31 12 69 27 84 35 31 16 54 11 64 -14 3 -9 11
-169 18 -356 7 -188 13 -323 15 -301 2 24 12 47 24 59 19 18 20 27 15 815 -3
438 -9 815 -14 837 -7 38 -9 40 -23 26z m-23 -584 c-2 -13 -4 -3 -4 22 0 25 2
35 4 23 2 -13 2 -33 0 -45z m-582 -318 c3 -5 0 -10 -7 -10 -8 0 -39 -22 -69
-48 -29 -27 -75 -63 -102 -81 -42 -29 -46 -34 -36 -53 9 -17 9 -20 -3 -16 -8
4 -20 -3 -26 -13 -16 -25 -39 -24 -53 2 -13 25 4 41 165 156 102 73 120 81
131 63z m126 -369 c-31 -23 -90 -57 -76 -44 13 14 88 63 95 63 3 0 -6 -9 -19
-19z m-254 -93 c-2 -13 -4 -3 -4 22 0 25 2 35 4 23 2 -13 2 -33 0 -45z m-17
-59 c-7 -11 -14 -18 -17 -15 -8 8 5 36 17 36 7 0 7 -6 0 -21z"/>
<path d="M7835 8994 c-73 -38 -114 -106 -115 -190 0 -65 22 -118 68 -167 70
-73 157 -96 236 -63 67 28 113 122 102 209 -21 153 -180 269 -291 211z m193
-146 c21 -21 14 -38 -16 -38 -30 0 -52 16 -52 37 0 16 52 17 68 1z"/>
<path d="M8526 8829 c-48 -32 -108 -99 -273 -303 -87 -107 -126 -139 -188
-151 l-30 -7 25 -13 c14 -8 96 -88 184 -180 132 -138 156 -168 146 -180 -7 -8
-9 -15 -5 -15 4 0 2 -8 -5 -17 -7 -10 1 -3 19 15 17 17 40 32 52 32 12 0 35
11 51 26 17 14 37 23 44 20 8 -3 33 18 61 49 25 30 49 53 52 50 2 -3 -3 -13
-13 -23 -37 -39 -76 -96 -76 -113 0 -13 10 -20 38 -24 103 -18 244 -59 344
-99 125 -51 157 -56 48 -8 -66 29 -70 32 -58 52 7 11 16 20 20 20 5 0 8 6 8
13 0 14 42 49 73 60 16 6 22 24 18 55 -2 11 12 17 33 13 4 -1 14 3 20 9 7 5
15 7 18 5 3 -3 3 6 0 20 -2 15 -16 34 -31 43 -14 9 -29 21 -32 26 -4 5 -12 5
-18 2 -6 -4 -28 7 -50 24 -21 17 -45 32 -53 34 -20 2 -56 35 -153 137 -61 64
-53 57 33 -26 61 -60 112 -107 112 -103 0 3 -59 68 -130 144 -121 128 -130
141 -125 169 22 111 15 173 -28 236 -31 47 -68 49 -131 8z m73 -395 c94 -92
170 -171 169 -176 -2 -5 -15 -17 -29 -25 -26 -16 -26 -15 -182 139 -87 86
-157 161 -157 168 0 7 -7 10 -15 6 -24 -9 -17 11 11 33 15 12 28 21 29 21 1 0
79 -75 174 -166z m66 116 c21 -22 37 -40 34 -40 -3 0 -23 18 -44 40 -21 22
-37 40 -34 40 3 0 23 -18 44 -40z m215 -254 c0 -2 -7 -7 -16 -10 -8 -3 -12 -2
-9 4 6 10 25 14 25 6z m-56 -41 c-14 -22 -14 -25 -1 -25 23 0 68 -26 59 -35
-8 -8 60 -1 93 10 20 7 20 6 1 -9 -11 -9 -33 -16 -48 -16 -22 0 -48 -19 -113
-81 l-85 -81 -65 7 c-36 3 -65 10 -65 15 0 5 14 17 30 27 17 9 30 20 30 24 0
16 94 127 133 156 51 39 52 39 31 8z m163 -31 c-3 -3 -12 -4 -19 -1 -8 3 -5 6
6 6 11 1 17 -2 13 -5z m131 -77 c3 -16 1 -17 -17 -7 -25 13 -28 33 -4 28 10
-2 19 -11 21 -21z"/>
<path d="M5318 8803 c7 -3 16 -2 19 1 4 3 -2 6 -13 5 -11 0 -14 -3 -6 -6z"/>
<path d="M5413 8803 c15 -2 39 -2 55 0 15 2 2 4 -28 4 -30 0 -43 -2 -27 -4z"/>
<path d="M5528 8793 c7 -3 16 -2 19 1 4 3 -2 6 -13 5 -11 0 -14 -3 -6 -6z"/>
<path d="M5568 8783 c7 -3 16 -2 19 1 4 3 -2 6 -13 5 -11 0 -14 -3 -6 -6z"/>
<path d="M5620 8770 c8 -5 20 -10 25 -10 6 0 3 5 -5 10 -8 5 -19 10 -25 10 -5
0 -3 -5 5 -10z"/>
<path d="M5088 8744 c-39 -21 -35 -28 5 -8 37 19 44 24 31 24 -5 -1 -21 -8
-36 -16z"/>
<path d="M5233 8720 c-120 -31 -214 -92 -305 -197 -111 -126 -154 -275 -163
-559 -9 -284 -16 -327 -68 -383 -48 -52 -120 -66 -422 -82 -14 0 -11 -3 10
-10 16 -4 38 -7 50 -5 11 2 14 1 8 -1 -17 -6 -16 -18 1 -46 20 -32 26 -92 27
-290 1 -153 3 -179 18 -186 27 -16 -15 -26 -55 -13 -19 6 -34 6 -34 1 0 -5 7
-9 15 -9 8 0 15 -8 15 -19 0 -18 17 -19 378 -26 207 -4 816 -5 1352 -3 536 3
986 2 1000 -2 14 -5 19 -8 12 -9 -14 -1 -14 -81 0 -81 4 0 8 -4 8 -10 0 -14
-2729 -14 -2766 0 -23 9 -25 8 -15 -3 6 -8 33 -17 61 -21 42 -6 48 -9 45 -26
-2 -11 0 -20 4 -20 5 0 11 -10 14 -21 5 -20 3 -21 -46 -15 -39 5 -49 4 -41 -4
22 -22 642 -32 1764 -26 863 4 1095 2 1058 -7 l-47 -12 24 -58 c22 -55 64
-125 93 -155 7 -8 9 -18 6 -24 -4 -7 -2 -8 4 -4 7 4 12 3 12 -2 0 -5 16 -22
35 -36 28 -22 38 -25 55 -16 11 6 20 20 20 31 0 15 5 19 15 15 18 -7 20 5 3
23 -11 11 -10 13 5 7 10 -3 21 -6 23 -6 3 0 2 -4 -1 -10 -3 -5 -1 -18 4 -27 9
-16 10 -15 11 8 0 14 11 36 24 48 l23 22 66 -66 c60 -60 65 -68 57 -91 -6 -14
-10 -34 -10 -44 0 -27 77 -70 125 -70 34 0 45 7 88 52 26 28 60 71 73 95 15
25 48 58 82 81 31 21 85 57 118 80 69 47 72 48 134 26 51 -18 186 -11 159 8
-10 7 -5 8 15 3 17 -4 32 -2 36 5 4 6 28 14 54 18 l48 7 -64 47 c-142 105
-254 237 -353 416 -54 98 -70 132 -160 329 -35 76 -39 81 -72 85 -31 4 -37 0
-67 -42 -23 -32 -44 -49 -72 -58 -50 -15 -59 -5 -46 55 6 26 13 66 16 88 l5
40 -732 0 -732 0 -45 27 c-53 31 -84 70 -99 124 -6 21 -15 125 -20 229 -11
193 -19 257 -47 355 -50 175 -189 343 -346 419 -147 71 -301 89 -445 51z m286
-75 c193 -46 346 -195 397 -385 23 -89 23 -229 0 -300 -19 -56 -73 -170 -81
-170 -2 0 9 28 25 63 16 34 32 77 36 95 6 27 4 31 -10 26 -9 -3 -16 -11 -16
-18 0 -6 -16 -44 -35 -84 -37 -79 -110 -164 -153 -180 -15 -6 -36 -14 -47 -18
-11 -4 -27 -8 -35 -10 -8 -1 -42 -10 -75 -19 -176 -53 -403 11 -518 145 -60
71 -106 186 -107 268 0 18 -4 31 -9 27 -11 -6 -6 -57 16 -143 20 -80 10 -93
-12 -16 -60 205 -41 349 65 503 49 72 90 111 164 155 61 37 97 48 61 19 -17
-13 -17 -15 -2 -10 93 33 135 39 231 35 55 -3 119 -12 141 -20 72 -28 81 -29
29 -3 -68 33 -180 48 -269 36 -79 -11 -98 -7 -33 7 66 15 166 13 237 -3z m280
-901 c-18 -20 -47 -45 -64 -57 -16 -11 -3 5 30 36 68 64 86 75 34 21z m-119
-88 c0 -3 -37 -19 -81 -36 -63 -24 -101 -32 -168 -35 -47 -2 -70 -1 -51 1 124
16 177 27 228 48 59 25 72 29 72 22z m-377 -63 c-7 -2 -19 -2 -25 0 -7 3 -2 5
12 5 14 0 19 -2 13 -5z m2377 -113 c0 -5 -5 -10 -11 -10 -5 0 -7 5 -4 10 3 6
8 10 11 10 2 0 4 -4 4 -10z m-2412 -135 l3 -51 35 4 c59 7 74 -16 74 -115 0
-76 -2 -83 -20 -83 -17 0 -20 7 -20 43 0 23 -3 59 -7 80 -5 34 -9 38 -32 35
-25 -3 -26 -6 -31 -78 -4 -67 -7 -75 -25 -75 -19 0 -20 8 -23 148 l-3 148 23
-3 c20 -3 23 -10 26 -53z m1124 -77 c0 -68 1 -132 2 -143 1 -17 -6 -20 -54
-22 -34 -1 -63 4 -77 12 -47 31 -54 139 -10 170 12 8 39 15 61 15 l39 0 -6 45
c-6 43 -5 45 18 45 l25 0 2 -122z m-1652 92 c0 -16 -7 -20 -35 -20 l-34 0 -3
-117 c-3 -102 -5 -118 -20 -121 -16 -3 -18 9 -20 115 l-3 118 -32 3 c-25 2
-33 8 -33 23 0 17 8 19 90 19 83 0 90 -1 90 -20z m1091 -67 l42 -88 40 88 c34
73 44 87 64 87 23 0 23 0 23 -135 l0 -135 -25 0 c-25 0 -25 1 -25 88 l-1 87
-33 -75 c-18 -41 -37 -75 -42 -74 -5 0 -25 31 -44 70 l-35 69 -3 -88 c-2 -77
-5 -88 -20 -85 -15 3 -17 20 -20 141 -2 131 -2 137 17 137 16 0 30 -21 62 -87z
m1959 32 c0 -11 -11 -15 -42 -14 -28 1 -34 3 -18 6 14 3 29 9 35 14 14 14 25
11 25 -6z m-2067 -45 c-4 -14 -14 -20 -34 -20 l-28 0 -3 -77 c-3 -72 -5 -78
-25 -81 -23 -3 -23 -1 -23 97 0 94 1 101 20 101 11 0 20 -5 20 -11 0 -8 4 -8
13 -1 13 11 48 20 59 15 3 -2 4 -12 1 -23z m461 -8 c3 -10 6 -50 8 -91 3 -76
-7 -96 -35 -73 -8 7 -18 7 -27 2 -39 -25 -90 4 -90 49 0 40 15 54 62 60 29 4
43 11 43 21 0 11 -12 15 -47 14 -48 0 -62 12 -35 34 31 26 112 15 121 -16z
m353 27 c39 -15 43 -24 43 -115 l0 -81 -62 1 c-35 1 -69 5 -75 9 -16 10 -17
79 -1 95 7 7 29 12 49 12 41 0 52 8 39 29 -5 10 -20 12 -49 8 -38 -5 -41 -3
-41 18 0 22 10 28 57 34 6 0 24 -4 40 -10z m-1693 -21 c9 -12 16 -37 16 -55 0
-33 0 -33 -50 -33 -37 0 -50 -4 -50 -15 0 -22 35 -37 63 -26 20 8 27 6 31 -6
11 -27 -14 -37 -81 -34 -29 1 -53 48 -53 103 0 61 21 88 70 88 29 0 43 -6 54
-22z m159 10 c23 -17 31 -177 9 -186 -8 -3 -17 0 -21 6 -4 7 -12 8 -21 2 -36
-23 -90 8 -90 50 0 29 36 60 70 60 23 0 30 4 30 20 0 17 -7 20 -40 20 -38 0
-52 14 -33 33 11 12 78 8 96 -5z m185 -10 c-2 -18 -10 -22 -43 -22 l-40 -1 -3
-48 c-3 -42 0 -48 20 -56 13 -5 33 -5 46 0 19 7 22 5 22 -16 0 -20 -6 -25 -35
-31 -66 -12 -112 42 -102 119 8 57 31 77 89 77 45 0 49 -2 46 -22z m352 12
c17 -9 40 -58 40 -86 0 -10 -16 -14 -60 -14 -44 0 -60 -4 -60 -14 0 -26 28
-39 70 -32 32 5 40 3 40 -9 0 -17 -38 -35 -75 -35 -13 0 -36 10 -50 23 -22 18
-27 32 -28 73 -3 69 21 104 69 104 19 0 44 -4 54 -10z m2120 -31 c-12 -8 -9
-9 13 -5 32 8 71 -11 109 -51 15 -15 77 -118 139 -228 142 -253 146 -262 153
-312 6 -40 4 -43 -46 -88 -75 -67 -131 -98 -166 -90 -37 8 -122 78 -195 162
-120 139 -194 362 -155 474 17 51 43 84 95 118 42 28 89 46 53 20z m-284 -187
c12 -7 28 -56 38 -109 4 -26 1 -35 -17 -48 -27 -19 -48 -19 -41 0 8 19 -22 31
-40 16 -11 -9 -15 -7 -20 11 -13 49 -6 79 23 109 31 30 39 33 57 21z m619 -76
l16 -31 -29 34 c-17 18 -33 43 -36 55 -5 20 -4 19 13 -3 11 -14 26 -38 36 -55z
m65 14 c6 -11 8 -20 6 -20 -3 0 -10 9 -16 20 -6 11 -8 20 -6 20 3 0 10 -9 16
-20z m-858 -98 c-2 -13 3 -25 12 -28 17 -6 20 -40 10 -92 -8 -41 -51 -53 -76
-22 -21 26 -23 41 -4 34 10 -4 15 11 19 56 4 34 10 66 13 71 10 17 29 3 26
-19z m128 -12 c0 -5 -2 -10 -4 -10 -3 0 -8 5 -11 10 -3 6 -1 10 4 10 6 0 11
-4 11 -10z m166 -142 c13 -26 24 -56 24 -67 0 -20 -16 -37 -22 -24 -1 5 -20
21 -41 37 -37 27 -38 27 -25 5 22 -41 40 -59 51 -52 6 3 7 1 3 -5 -11 -19 -34
-3 -66 47 -32 52 -37 78 -17 103 31 40 57 28 93 -44z m-771 -8 c-33 -4 -53 -8
-45 -9 8 -1 29 -8 45 -16 26 -12 4 -13 -190 -13 -121 1 -190 4 -153 7 107 10
103 28 -7 34 -33 2 46 3 175 3 130 1 208 -2 175 -6z m631 -97 c7 -18 11 -33 9
-33 -9 0 -35 60 -34 77 0 14 2 15 6 3 3 -8 12 -30 19 -47z m-23 -62 c19 -22
37 -37 40 -35 2 3 10 -3 17 -11 11 -14 10 -20 -12 -42 -34 -34 -61 -24 -88 33
-21 43 -22 94 -1 94 5 0 25 -18 44 -39z m317 -27 c39 -52 41 -58 30 -85 -9
-22 -19 -29 -39 -29 -20 0 -22 -3 -11 -9 8 -6 18 -7 24 -4 5 3 6 1 2 -5 -12
-20 -27 -13 -68 31 -47 51 -71 93 -62 110 37 65 70 62 124 -9z m-240 4 c0 -14
-19 1 -31 25 -12 22 -12 22 10 3 11 -11 21 -23 21 -28z"/>
<path d="M5085 8546 c-33 -24 -69 -54 -80 -67 l-20 -24 20 15 c11 8 34 26 50
41 17 15 48 39 69 53 21 14 35 26 29 26 -5 0 -36 -20 -68 -44z"/>
<path d="M5647 8569 c7 -7 15 -10 18 -7 3 3 -2 9 -12 12 -14 6 -15 5 -6 -5z"/>
<path d="M5255 8532 c-118 -41 -192 -107 -245 -217 -59 -125 -56 -260 11 -385
99 -186 338 -266 524 -175 110 53 208 203 221 336 8 79 -17 176 -64 249 -51
79 -156 175 -213 194 -66 21 -170 20 -234 -2z m142 2 c-3 -3 -12 -4 -19 -1 -8
3 -5 6 6 6 11 1 17 -2 13 -5z m50 -10 c-3 -3 -12 -4 -19 -1 -8 3 -5 6 6 6 11
1 17 -2 13 -5z m34 -29 c23 -8 45 -13 49 -10 4 3 10 -2 14 -10 3 -8 12 -15 19
-15 21 0 99 -82 125 -131 13 -24 17 -36 9 -26 -25 30 -27 18 -4 -25 29 -58 35
-162 12 -243 -9 -33 -17 -68 -18 -77 -1 -9 -6 -16 -12 -15 -5 1 -9 -6 -9 -16
1 -10 -21 -41 -48 -70 -28 -29 -45 -44 -38 -34 17 24 6 21 -38 -8 -21 -14 -70
-32 -108 -40 -64 -13 -77 -13 -146 4 -68 16 -83 24 -133 72 -31 30 -63 67 -71
82 -9 16 -20 25 -26 21 -6 -4 -8 -3 -5 3 3 5 0 27 -8 49 -8 21 -14 53 -13 69
0 24 2 21 9 -14 26 -132 157 -250 301 -270 143 -19 284 70 345 219 26 66 25
210 -4 265 -11 22 -18 45 -16 52 7 21 -80 98 -149 132 -37 19 -88 34 -119 38
-66 6 -176 -18 -237 -52 -25 -14 -39 -19 -33 -11 16 19 129 69 176 77 52 8
124 2 176 -16z m6 19 c-3 -3 -12 -4 -19 -1 -8 3 -5 6 6 6 11 1 17 -2 13 -5z
m-327 -97 c0 -2 -10 -12 -22 -23 l-23 -19 19 23 c18 21 26 27 26 19z m470
-138 c0 -5 -20 13 -45 41 -25 28 -45 54 -45 58 1 10 90 -88 90 -99z m-190 -24
c39 -20 60 -63 60 -120 0 -59 -20 -97 -65 -125 -66 -41 -148 -11 -181 67 -53
124 67 239 186 178z"/>
<path d="M5619 7878 c-19 -24 -26 -37 -16 -29 20 16 61 71 54 71 -3 0 -20 -19
-38 -42z"/>
<path d="M5846 7968 c-10 -35 -31 -88 -49 -118 -17 -30 -24 -49 -15 -42 21 17
65 109 79 167 18 70 5 63 -15 -7z"/>
<path d="M5749 7773 c-13 -16 -12 -17 4 -4 9 7 17 15 17 17 0 8 -8 3 -21 -13z"/>
<path d="M6281 7241 c-16 -29 -13 -67 5 -85 19 -19 25 -20 48 -3 13 10 17 24
14 57 -3 40 -6 45 -30 48 -18 2 -30 -3 -37 -17z"/>
<path d="M6084 7175 c-8 -19 3 -35 25 -35 20 0 41 19 41 37 0 18 -59 17 -66
-2z"/>
<path d="M6474 7175 c-7 -18 3 -35 21 -35 15 0 45 27 45 41 0 15 -60 10 -66
-6z"/>
<path d="M4760 7241 c0 -17 6 -21 31 -21 24 0 30 4 27 18 -2 10 -14 18 -31 20
-22 3 -27 -1 -27 -17z"/>
<path d="M4923 7174 c-8 -22 11 -37 36 -29 31 10 28 45 -4 45 -14 0 -28 -7
-32 -16z"/>
<path d="M5467 7254 c-16 -17 -5 -29 28 -30 27 0 35 3 33 15 -3 17 -48 27 -61
15z"/>
<path d="M7197 6790 c-3 -11 -1 -20 4 -20 5 0 9 9 9 20 0 11 -2 20 -4 20 -2 0
-6 -9 -9 -20z"/>
<path d="M7560 6526 c0 -2 8 -10 18 -17 15 -13 16 -12 3 4 -13 16 -21 21 -21
13z"/>
<path d="M5019 8699 l-24 -20 28 17 c15 9 27 18 27 20 0 8 -8 4 -31 -17z"/>
<path d="M4915 8608 l-70 -73 73 70 c39 38 72 71 72 72 0 8 -11 -2 -75 -69z"/>
<path d="M4829 8513 c-13 -16 -12 -17 4 -4 16 13 21 21 13 21 -2 0 -10 -8 -17
-17z"/>
<path d="M9090 8224 c0 -4 12 -21 27 -36 22 -23 28 -40 31 -92 5 -69 -16 -157
-49 -214 -10 -18 -19 -35 -19 -37 0 -3 42 -26 93 -51 50 -25 113 -62 140 -80
26 -19 48 -34 50 -34 15 0 9 225 -8 289 -25 95 -71 181 -98 181 -6 0 -1 -10
11 -23 54 -57 103 -231 84 -298 -9 -31 -10 -31 -11 -8 -1 15 -8 40 -16 55 -8
16 -12 37 -9 46 3 10 -6 34 -20 55 -15 21 -33 72 -43 116 l-17 79 -52 23 c-68
30 -94 38 -94 29z m105 -80 c10 -25 12 -46 7 -68 -8 -30 -9 -29 -15 19 -3 28
-9 58 -12 68 -14 34 5 16 20 -19z"/>
<path d="M6445 8076 c-60 -27 -105 -101 -105 -173 0 -132 153 -224 270 -161
123 66 123 264 0 326 -50 25 -119 28 -165 8z m142 -7 c92 -35 130 -151 81
-249 -56 -110 -206 -117 -285 -14 -36 48 -38 128 -5 190 35 69 132 102 209 73z"/>
<path d="M6484 7990 c-30 -12 -64 -58 -64 -87 0 -49 45 -102 87 -103 57 0 112
63 99 115 -14 56 -76 94 -122 75z"/>
<path d="M4435 8056 c-33 -33 -48 -98 -42 -182 8 -107 39 -154 101 -154 56 0
117 97 115 184 0 21 -6 7 -19 -44 -27 -105 -76 -149 -132 -119 -22 12 -48 66
-48 101 0 21 1 20 16 -7 8 -16 21 -33 27 -37 16 -10 47 0 75 25 45 41 18 161
-38 168 -50 5 -65 -10 -80 -84 -8 -40 -8 -41 -9 -9 -2 52 28 141 50 153 41 21
72 7 101 -46 32 -57 38 -44 8 15 -33 64 -83 78 -125 36z"/>
<path d="M8269 7903 c-13 -16 -12 -17 4 -4 16 13 21 21 13 21 -2 0 -10 -8 -17
-17z"/>
<path d="M6162 7890 c0 -14 2 -19 5 -12 2 6 2 18 0 25 -3 6 -5 1 -5 -13z"/>
<path d="M8129 7778 c-64 -62 -77 -77 -30 -34 127 118 156 146 150 146 -2 0
-57 -51 -120 -112z"/>
<path d="M1880 7736 c0 -2 8 -10 18 -17 15 -13 16 -12 3 4 -13 16 -21 21 -21
13z"/>
<path d="M4346 7619 c-49 -4 -93 -12 -98 -17 -7 -7 3 -7 28 -1 22 4 68 9 104
10 36 0 90 4 120 9 l55 7 -60 0 c-33 0 -100 -3 -149 -8z"/>
<path d="M6618 7623 c7 -3 16 -2 19 1 4 3 -2 6 -13 5 -11 0 -14 -3 -6 -6z"/>
<path d="M6672 7625 c11 -12 1115 -17 1134 -6 14 7 -140 10 -560 11 -319 0
-577 -2 -574 -5z"/>
<path d="M9330 7595 c19 -19 36 -35 39 -35 3 0 -10 16 -29 35 -19 19 -36 35
-39 35 -3 0 10 -16 29 -35z"/>
<path d="M7811 7584 c0 -11 3 -14 6 -6 3 7 2 16 -1 19 -3 4 -6 -2 -5 -13z"/>
<path d="M7758 7523 c7 -3 16 -2 19 1 4 3 -2 6 -13 5 -11 0 -14 -3 -6 -6z"/>
<path d="M4272 7410 c0 -14 2 -19 5 -12 2 6 2 18 0 25 -3 6 -5 1 -5 -13z"/>
<path d="M4281 7294 c0 -11 3 -14 6 -6 3 7 2 16 -1 19 -3 4 -6 -2 -5 -13z"/>
<path d="M4282 7240 c0 -19 2 -27 5 -17 2 9 2 25 0 35 -3 9 -5 1 -5 -18z"/>
<path d="M4292 7060 c0 -19 2 -27 5 -17 2 9 2 25 0 35 -3 9 -5 1 -5 -18z"/>
<path d="M4777 6559 c75 -129 315 -409 444 -519 41 -35 22 -13 -51 60 -148
148 -220 233 -321 375 -79 112 -109 146 -72 84z"/>
<path d="M4490 6185 c13 -14 26 -25 28 -25 3 0 -5 11 -18 25 -13 14 -26 25
-28 25 -3 0 5 -11 18 -25z"/>
<path d="M6742 6161 c-123 -38 -270 -135 -353 -233 -35 -42 -40 -53 -31 -67 7
-9 25 -43 40 -77 16 -33 45 -76 65 -96 31 -31 42 -36 98 -40 36 -3 65 -10 67
-16 2 -7 10 -18 17 -26 14 -13 39 -221 29 -237 -3 -5 1 -9 8 -9 7 -1 3 -9 -10
-20 -12 -10 -18 -21 -13 -24 5 -3 11 -24 13 -46 4 -42 4 -41 -53 -54 -37 -8
-99 -79 -99 -114 0 -15 -5 -34 -11 -42 -8 -11 -9 -7 -5 19 9 50 -3 32 -20 -30
-59 -224 67 -529 218 -529 57 0 79 -10 68 -30 -5 -9 -8 -19 -6 -21 7 -6 14
-94 21 -234 3 -71 11 -150 16 -173 7 -33 7 -48 -3 -60 -7 -10 -9 -14 -4 -10 5
4 17 3 28 -3 23 -13 16 -46 -16 -71 -11 -10 -16 -18 -11 -18 6 0 16 5 22 11
14 14 44 -47 61 -121 12 -50 5 -60 -38 -60 -14 0 -37 -7 -52 -14 l-28 -15 0
93 c0 60 4 97 13 106 6 7 -8 -2 -32 -21 -51 -40 -77 -86 -86 -154 -4 -28 -9
-57 -11 -66 -3 -12 4 -15 38 -15 l42 1 16 -115 c19 -131 37 -181 83 -229 49
-51 82 -61 209 -61 88 0 121 4 148 18 72 36 100 122 100 310 l0 102 36 -15
c49 -20 54 -19 54 13 0 65 -55 209 -78 204 -7 -1 -11 4 -10 10 2 7 -23 25 -55
40 -39 19 -61 37 -69 56 -6 15 -11 30 -10 33 1 4 -56 5 -126 2 -96 -4 -124 -3
-116 6 11 12 4 85 -12 125 -5 14 -4 17 4 12 8 -4 12 0 12 11 1 29 15 -4 30
-71 12 -51 31 -78 46 -64 2 3 -7 81 -21 174 -44 299 -48 319 -56 296 -5 -12
-13 -22 -20 -22 -12 0 -11 -14 14 -180 13 -88 15 -134 3 -79 -3 13 -12 53 -20
89 -8 36 -16 79 -18 95 -1 17 -5 35 -9 40 -4 6 -9 25 -11 44 l-3 35 80 13 c43
7 85 11 91 9 7 -3 15 -31 19 -63 12 -116 17 -136 26 -122 6 9 8 -2 6 -31 -3
-43 5 -152 18 -252 4 -28 12 -48 19 -48 15 0 12 68 -15 283 -10 87 -19 173
-19 192 0 18 -6 36 -12 38 -7 3 -3 6 10 6 19 1 22 -4 23 -36 l2 -38 6 40 c5
31 11 41 31 46 24 7 24 7 -6 8 -62 2 -103 76 -145 261 -26 118 -36 305 -17
339 7 13 29 32 48 42 22 12 28 19 16 19 -21 0 -51 32 -72 77 -18 42 -18 43 7
43 11 0 18 4 15 8 -3 5 -27 5 -53 1 -26 -4 -62 -8 -79 -8 l-32 -1 -1 117 c-2
139 -7 163 -31 163 -29 0 -32 -15 -21 -93 6 -39 11 -97 13 -127 2 -52 1 -55
-22 -58 -19 -3 -22 -1 -14 8 8 8 9 24 3 48 -4 20 -6 76 -4 125 4 76 2 88 -10
83 -8 -3 -15 -1 -15 4 0 6 1 10 3 10 52 11 192 29 219 30 27 0 38 -5 41 -17 4
-14 5 -13 6 3 1 16 13 26 41 38 71 28 119 120 136 258 5 50 9 58 33 66 25 9
26 9 4 16 -12 4 -25 15 -28 25 -9 30 -81 94 -122 109 -64 24 -227 25 -301 3z
m162 -97 c3 -8 10 -13 15 -10 13 9 21 -20 19 -72 -1 -43 -2 -44 -6 -12 l-5 35
-6 -30 c-6 -30 -7 -30 -61 -26 -30 2 -58 8 -63 15 -10 15 0 64 18 93 19 28 79
33 89 7z m226 -33 c19 -47 10 -76 -25 -79 -29 -3 -30 -2 -30 40 0 39 2 43 24
40 20 -2 22 0 11 13 -7 8 -8 15 -2 15 5 0 15 -13 22 -29z m-740 -145 c0 -3 -4
-8 -10 -11 -5 -3 -10 -1 -10 4 0 6 5 11 10 11 6 0 10 -2 10 -4z m730 -52 c-16
-49 -21 -38 -8 16 6 24 13 39 16 32 2 -6 -2 -28 -8 -48z m-510 -157 c0 -5 -4
-5 -10 -2 -5 3 -10 14 -10 23 0 15 2 15 10 2 5 -8 10 -19 10 -23z m50 -57 c0
-5 -2 -10 -4 -10 -3 0 -8 5 -11 10 -3 6 -1 10 4 10 6 0 11 -4 11 -10z m210
-420 c0 -5 -7 -10 -16 -10 -8 0 -12 5 -9 10 3 6 10 10 16 10 5 0 9 -4 9 -10z
m-239 -14 c24 2 29 -1 25 -13 -4 -9 -1 -97 5 -197 11 -187 41 -342 75 -394 9
-13 12 -22 6 -18 -5 3 -12 0 -15 -7 -4 -11 -35 -14 -69 -8 -4 0 -15 15 -24 33
-71 138 -129 481 -93 551 16 31 53 70 56 60 2 -5 17 -8 34 -7z m69 -5 c0 -5
-7 -11 -15 -15 -15 -5 -20 5 -8 17 9 10 23 9 23 -2z m238 -196 l3 -40 -111 3
-110 3 1 32 c1 20 3 25 6 13 3 -10 8 -14 12 -9 7 11 145 42 176 40 16 -2 21
-10 23 -42z m272 -1132 c0 -7 7 -13 15 -13 12 0 15 -13 15 -60 0 -33 -4 -60
-10 -60 -5 0 -31 5 -58 11 l-50 10 -5 47 c-3 26 -7 56 -9 67 -2 14 3 21 20 23
13 2 25 10 28 18 15 49 16 50 35 9 10 -22 19 -46 19 -52z m57 25 c-3 -8 -6 -5
-6 6 -1 11 2 17 5 13 3 -3 4 -12 1 -19z m-300 -80 c-3 -8 -6 -5 -6 6 -1 11 2
17 5 13 3 -3 4 -12 1 -19z m103 12 c0 -5 -9 -10 -19 -10 -11 0 -28 -2 -38 -5
-10 -3 -4 1 12 9 36 18 45 19 45 6z m-173 -32 c-3 -7 -5 -2 -5 12 0 14 2 19 5
13 2 -7 2 -19 0 -25z m30 10 c-3 -8 -6 -5 -6 6 -1 11 2 17 5 13 3 -3 4 -12 1
-19z m340 -60 c-3 -7 -5 -2 -5 12 0 14 2 19 5 13 2 -7 2 -19 0 -25z m-229 -5
c-26 -2 -71 -2 -100 0 -29 2 -8 3 47 3 55 0 79 -1 53 -3z m-158 -58 c0 -19 -4
-35 -10 -35 -5 0 -10 4 -10 9 0 13 -43 1 -57 -16 -17 -22 -54 -7 -49 20 2 15
16 27 47 39 68 26 79 24 79 -17z m313 18 c-7 -2 -19 -2 -25 0 -7 3 -2 5 12 5
14 0 19 -2 13 -5z m74 -170 c-3 -10 -5 -4 -5 12 0 17 2 24 5 18 2 -7 2 -21 0
-30z"/>
<path d="M4667 6130 c-20 -16 -27 -30 -25 -49 2 -15 9 -25 16 -23 22 4 52 -18
52 -38 0 -21 -30 -28 -30 -7 0 6 -5 4 -11 -6 -6 -10 -8 -32 -5 -50 6 -30 5
-30 -5 -7 -6 14 -9 40 -7 58 2 17 0 32 -5 32 -16 0 1 -149 24 -218 27 -81 65
-124 145 -163 68 -34 79 -43 39 -33 -20 5 -25 2 -32 -23 -4 -15 -7 -73 -7
-128 -1 -97 0 -100 22 -101 12 -1 26 -5 30 -9 4 -4 -11 -6 -33 -5 -65 3 -68 1
-39 -25 15 -14 23 -25 19 -25 -4 0 -1 -8 6 -17 12 -15 12 -16 -3 -11 -10 4
-19 1 -22 -9 -5 -11 -15 -14 -40 -10 -39 6 -61 -5 -53 -27 3 -8 -8 -45 -24
-82 -78 -172 -79 -360 -1 -515 l28 -57 -28 14 c-15 8 -44 29 -65 47 -29 25
-34 27 -25 10 23 -43 78 -74 151 -87 64 -10 105 -26 69 -26 -13 0 -14 -7 -8
-33 4 -18 1 -91 -6 -162 -8 -72 -16 -160 -20 -197 -4 -54 -9 -68 -22 -69 -9
-1 1 -7 23 -15 l40 -13 -45 1 c-60 2 -70 6 -71 32 -1 16 -2 17 -6 4 -2 -9 1
-26 7 -37 8 -15 8 -21 0 -21 -6 0 -8 -4 -5 -10 3 -5 0 -10 -7 -10 -8 0 -8 -5
4 -16 14 -15 13 -21 -19 -78 -19 -33 -40 -66 -48 -72 -11 -8 -11 -12 3 -22 15
-10 14 -12 -8 -9 -23 2 -25 6 -23 46 2 48 26 109 51 129 14 11 13 12 -5 12
-35 0 -85 -51 -115 -117 -15 -35 -34 -63 -41 -64 -6 -1 -1 -5 13 -10 16 -6 -5
-7 -60 -4 -167 11 -405 -36 -568 -110 -207 -95 -272 -141 -361 -253 -40 -50
-63 -44 -36 9 36 70 102 134 194 188 50 30 91 56 91 58 0 7 -108 -51 -168 -90
-44 -30 -74 -60 -102 -102 -51 -79 -57 -105 -29 -130 18 -17 35 -20 108 -19
131 3 239 47 446 184 173 114 256 151 451 199 196 50 276 38 374 -54 83 -78
156 -132 195 -145 29 -9 44 -9 83 5 71 24 106 60 131 138 7 20 19 37 26 37 20
0 23 20 9 67 -17 56 -30 80 -72 132 -34 41 -86 81 -107 81 -5 0 9 -11 31 -25
56 -33 105 -99 124 -167 5 -17 5 -26 -1 -23 -5 4 -9 12 -9 20 0 20 -58 103
-80 115 -34 18 -108 23 -139 10 -40 -16 -66 -89 -65 -185 0 -97 29 -144 104
-168 11 -4 11 -6 -3 -6 -41 -2 -135 63 -179 123 -30 42 -35 78 -18 136 16 53
34 71 80 77 29 4 38 9 28 14 -25 14 -71 3 -90 -21 -24 -29 -23 -13 1 27 22 35
96 73 142 73 18 0 30 6 33 18 4 10 21 25 38 33 18 8 34 21 36 29 2 10 1 11 -5
4 -4 -6 -19 -14 -33 -18 -23 -7 -24 -6 -7 7 10 8 14 17 9 18 -8 4 3 411 12
435 3 7 29 23 58 37 54 25 110 73 130 111 6 12 -6 2 -27 -22 -37 -42 -82 -72
-107 -72 -8 1 -5 6 6 15 19 15 19 15 -1 15 -33 0 -53 11 -53 28 0 8 -8 24 -17
34 -18 20 -63 141 -63 169 0 12 -5 16 -15 13 -8 -4 -15 -13 -15 -21 0 -8 -5
-11 -10 -8 -7 4 -8 -8 -4 -34 7 -46 -6 -55 -24 -15 -7 14 -16 23 -21 20 -12
-8 -21 44 -22 133 l-1 76 -8 -53 c-10 -66 -20 -79 -20 -26 0 21 -5 46 -10 54
-8 12 -10 9 -10 -13 0 -16 -7 -36 -16 -44 -15 -16 -15 -57 2 -145 5 -24 35
-46 57 -40 4 1 5 -8 2 -20 -4 -15 3 -34 19 -57 14 -19 23 -38 21 -42 -3 -4 0
-11 6 -15 7 -4 9 -3 6 3 -3 5 0 10 7 10 8 0 12 -5 10 -12 -3 -6 8 -16 23 -22
26 -10 27 -11 5 -12 -58 -3 -127 67 -156 157 -49 153 -39 313 25 391 15 19 26
38 23 43 -3 4 2 8 11 8 9 0 29 8 43 19 50 34 139 46 190 25 48 -19 39 -7 -13
17 -37 17 -46 27 -51 55 -5 27 -2 38 11 48 12 9 18 29 20 67 2 30 8 77 15 104
7 28 17 69 22 93 6 23 15 42 20 42 5 0 6 -5 2 -11 -3 -6 4 -4 17 4 13 8 45 20
72 27 57 15 106 65 133 136 10 27 22 52 28 56 5 3 -11 12 -35 18 -114 31 -205
68 -339 137 -243 127 -255 132 -311 139 -46 5 -58 3 -82 -16z m315 -154 c13
-19 9 -26 -16 -26 -13 0 -31 -3 -40 -6 -12 -5 -16 0 -16 19 0 14 6 28 13 30
16 7 50 -3 59 -17z m372 -238 c-21 -37 -39 -48 -79 -48 -25 0 -48 6 -55 14
-10 13 -7 13 18 4 35 -14 77 -4 100 22 19 23 27 26 16 8z m-338 -134 c22 -9
33 -19 27 -21 -7 -3 -13 -15 -13 -28 0 -13 -4 -27 -10 -30 -13 -8 -13 -142 0
-150 33 -20 -38 -33 -107 -19 -29 6 -30 7 -22 47 5 23 8 59 9 80 0 20 5 37 11
37 7 0 10 18 7 50 l-3 50 31 0 c17 0 49 -7 70 -16z m111 -76 c-3 -8 -6 -5 -6
6 -1 11 2 17 5 13 3 -3 4 -12 1 -19z m-344 -453 c26 -4 47 -11 47 -16 0 -5
-12 -6 -26 -3 -24 6 -25 5 -15 -14 7 -13 17 -19 26 -16 8 4 15 2 15 -2 -1 -24
-20 -31 -87 -31 l-73 0 0 29 c0 44 18 71 43 65 12 -3 43 -9 70 -12z m184 -546
l48 -11 -7 -118 c-11 -199 -21 -297 -28 -270 -6 23 -7 21 -17 -17 -9 -38 -9
-43 6 -44 30 -2 -44 -17 -93 -18 -41 -1 -47 1 -42 16 4 9 11 80 17 157 5 78
15 180 21 229 13 97 11 95 95 76z m78 -689 c-3 -5 -13 -10 -21 -10 -8 0 -12 5
-9 10 3 6 13 10 21 10 8 0 12 -4 9 -10z m228 -95 c-7 -21 -13 -19 -13 6 0 11
4 18 10 14 5 -3 7 -12 3 -20z"/>
<path d="M4696 5061 c-3 -5 1 -11 9 -15 9 -3 15 0 15 9 0 16 -16 20 -24 6z"/>
<path d="M6336 6061 c-25 -49 -46 -95 -45 -103 0 -7 23 31 50 86 28 54 48 100
46 102 -3 3 -25 -35 -51 -85z"/>
<path d="M6932 5513 c1 -73 5 -133 10 -133 10 0 9 207 -2 240 -6 16 -8 -25 -8
-107z"/>
<path d="M6612 5550 c0 -14 2 -19 5 -12 2 6 2 18 0 25 -3 6 -5 1 -5 -13z"/>
<path d="M5161 5534 c0 -11 3 -14 6 -6 3 7 2 16 -1 19 -3 4 -6 -2 -5 -13z"/>
<path d="M5151 5494 c0 -11 3 -14 6 -6 3 7 2 16 -1 19 -3 4 -6 -2 -5 -13z"/>
<path d="M6621 5464 c0 -11 3 -14 6 -6 3 7 2 16 -1 19 -3 4 -6 -2 -5 -13z"/>
<path d="M5141 5444 c0 -11 3 -14 6 -6 3 7 2 16 -1 19 -3 4 -6 -2 -5 -13z"/>
<path d="M6982 5420 c0 -14 2 -19 5 -12 2 6 2 18 0 25 -3 6 -5 1 -5 -13z"/>
<path d="M5131 5384 c0 -11 3 -14 6 -6 3 7 2 16 -1 19 -3 4 -6 -2 -5 -13z"/>
<path d="M5220 5180 c14 -12 33 -31 43 -43 10 -12 15 -15 11 -7 -12 25 -37 51
-59 61 -15 8 -14 5 5 -11z"/>
<path d="M7155 5124 c-11 -60 -6 -208 9 -281 20 -96 46 -182 57 -188 5 -4 9
-16 9 -28 1 -46 30 30 40 105 10 69 0 252 -15 266 -3 3 -5 -2 -5 -11 0 -9 -4
-17 -10 -17 -5 0 -10 -11 -10 -25 0 -25 -23 -35 -35 -15 -4 6 -10 8 -14 5 -16
-9 -28 96 -15 129 7 18 34 22 34 4 0 -6 3 -8 6 -5 4 4 -1 18 -11 33 -17 27
-17 27 6 21 22 -5 22 -5 7 7 -10 7 -14 17 -10 22 4 5 3 6 -2 2 -5 -4 -15 -3
-21 2 -10 8 -14 1 -20 -26z"/>
<path d="M4929 5133 c-13 -16 -12 -17 4 -4 16 13 21 21 13 21 -2 0 -10 -8 -17
-17z"/>
<path d="M5074 5095 c-9 -14 -12 -33 -8 -49 l6 -26 44 40 c27 25 53 40 69 40
29 0 115 -73 116 -99 0 -10 3 -11 6 -4 6 17 -42 78 -82 103 -46 29 -131 26
-151 -5z"/>
<path d="M5303 5061 c12 -27 23 -45 25 -41 3 9 -35 90 -43 90 -2 0 6 -22 18
-49z"/>
<path d="M5110 5041 c-46 -49 -65 -111 -57 -191 8 -74 25 -115 65 -157 24 -26
38 -33 69 -33 29 0 35 -3 23 -11 -10 -7 -11 -9 -2 -7 8 2 13 7 12 12 -1 4 10
20 24 35 14 15 35 53 46 85 17 51 19 67 10 123 -14 87 -37 139 -70 163 -44 31
-78 26 -120 -19z m98 -208 c-6 -7 -20 -13 -32 -12 -21 0 -21 0 2 11 12 6 22
20 23 32 0 21 1 21 8 1 5 -11 4 -25 -1 -32z m-18 33 c0 -3 -4 -8 -10 -11 -5
-3 -10 -1 -10 4 0 6 5 11 10 11 6 0 10 -2 10 -4z"/>
<path d="M7241 5024 c0 -11 3 -14 6 -6 3 7 2 16 -1 19 -3 4 -6 -2 -5 -13z"/>
<path d="M5331 4984 c0 -11 3 -14 6 -6 3 7 2 16 -1 19 -3 4 -6 -2 -5 -13z"/>
<path d="M5312 4960 c0 -14 2 -19 5 -12 2 6 2 18 0 25 -3 6 -5 1 -5 -13z"/>
<path d="M5342 4925 c0 -16 2 -22 5 -12 2 9 2 23 0 30 -3 6 -5 -1 -5 -18z"/>
<path d="M5002 4900 c0 -19 2 -27 5 -17 2 9 2 25 0 35 -3 9 -5 1 -5 -18z"/>
<path d="M5288 4732 c-16 -30 -26 -57 -24 -59 2 -2 16 21 31 52 15 30 26 57
24 59 -2 2 -16 -21 -31 -52z"/>
<path d="M5331 4774 c0 -11 3 -14 6 -6 3 7 2 16 -1 19 -3 4 -6 -2 -5 -13z"/>
<path d="M4926 4647 c3 -10 9 -15 12 -12 3 3 0 11 -7 18 -10 9 -11 8 -5 -6z"/>
<path d="M7050 4653 c0 -7 12 -25 28 -41 15 -15 20 -19 11 -7 -9 11 -21 29
-27 40 -6 11 -12 14 -12 8z"/>
<path d="M5137 4644 c-9 -10 2 -24 18 -24 9 0 12 6 9 15 -6 16 -17 19 -27 9z"/>
<path d="M5216 4625 c-11 -8 -15 -15 -9 -15 6 0 16 7 23 15 16 19 11 19 -14 0z"/>
<path d="M4722 4405 c0 -16 2 -22 5 -12 2 9 2 23 0 30 -3 6 -5 -1 -5 -18z"/>
<path d="M7101 4414 c0 -11 3 -14 6 -6 3 7 2 16 -1 19 -3 4 -6 -2 -5 -13z"/>
<path d="M4712 4290 c0 -19 2 -27 5 -17 2 9 2 25 0 35 -3 9 -5 1 -5 -18z"/>
<path d="M5143 4285 c0 -22 2 -30 4 -17 2 12 2 30 0 40 -3 9 -5 -1 -4 -23z"/>
<path d="M6742 4280 c0 -14 2 -19 5 -12 2 6 2 18 0 25 -3 6 -5 1 -5 -13z"/>
<path d="M5143 4205 c0 -22 2 -30 4 -17 2 12 2 30 0 40 -3 9 -5 -1 -4 -23z"/>
<path d="M4703 4165 c0 -22 2 -30 4 -17 2 12 2 30 0 40 -3 9 -5 -1 -4 -23z"/>
<path d="M7131 4154 c0 -11 3 -14 6 -6 3 7 2 16 -1 19 -3 4 -6 -2 -5 -13z"/>
<path d="M6762 4130 c0 -14 2 -19 5 -12 2 6 2 18 0 25 -3 6 -5 1 -5 -13z"/>
<path d="M6771 4064 c0 -11 3 -14 6 -6 3 7 2 16 -1 19 -3 4 -6 -2 -5 -13z"/>
<path d="M4428 3823 c6 -2 18 -2 25 0 6 3 1 5 -13 5 -14 0 -19 -2 -12 -5z"/>
<path d="M4088 3803 c7 -3 16 -2 19 1 4 3 -2 6 -13 5 -11 0 -14 -3 -6 -6z"/>
<path d="M3780 3710 c-8 -5 -10 -10 -5 -10 6 0 17 5 25 10 8 5 11 10 5 10 -5
0 -17 -5 -25 -10z"/>
<path d="M5245 3427 c-16 -29 -54 -77 -84 -108 -51 -50 -64 -58 -138 -78 -206
-55 -569 -105 -1003 -137 -336 -25 -710 -10 -792 31 -32 16 -32 15 -43 -48 -7
-46 10 -79 55 -102 86 -44 610 -53 1025 -17 138 12 293 26 345 32 212 23 482
51 595 60 157 13 329 38 363 52 15 6 30 12 34 12 4 1 14 10 22 22 12 16 13 35
5 100 -11 88 -17 112 -19 74 0 -14 -10 9 -21 50 -10 41 -23 78 -29 84 -14 14
-91 10 -131 -7 -19 -8 -65 -42 -103 -77 -62 -56 -117 -90 -145 -90 -6 0 15 43
46 95 30 53 54 98 51 100 -2 2 -17 -19 -33 -48z m-2019 -315 c18 -12 11 -70
-8 -76 -15 -3 -18 3 -18 40 0 44 5 51 26 36z m596 -44 c-16 -16 -15 -28 3 -28
8 0 15 -9 15 -19 0 -11 3 -26 6 -35 5 -14 -5 -16 -72 -16 -46 0 -73 4 -66 9 7
4 12 12 11 17 -5 27 3 46 24 54 21 8 20 9 -8 10 -30 2 -30 2 -5 10 14 4 43 8
65 9 30 1 36 -2 27 -11z"/>
<path d="M6652 3425 c0 -16 2 -22 5 -12 2 9 2 23 0 30 -3 6 -5 -1 -5 -18z"/>
<path d="M6662 3370 c0 -14 2 -19 5 -12 2 6 2 18 0 25 -3 6 -5 1 -5 -13z"/>
<path d="M6675 3317 c9 -43 43 -131 60 -153 13 -15 13 -12 -1 16 -9 19 -27 64
-41 100 -13 36 -21 52 -18 37z"/>
<path d="M6770 3106 c0 -2 8 -10 18 -17 15 -13 16 -12 3 4 -13 16 -21 21 -21
13z"/>
<path d="M6331 3012 c-2 -88 9 -111 71 -141 174 -84 848 -96 1128 -21 57 15
166 66 176 82 11 18 14 148 3 148 -5 0 -9 -4 -9 -9 0 -13 -85 -46 -165 -65
-115 -26 -210 -36 -405 -43 -329 -10 -597 24 -741 95 l-56 27 -2 -73z m27 -22
c-3 -76 -18 -67 -18 11 0 40 4 58 11 54 6 -4 9 -32 7 -65z m867 -93 l0 -52
-70 -2 c-38 0 -62 1 -53 4 14 4 16 12 11 48 -6 48 -2 52 72 54 l40 1 0 -53z"/>
</g>
</svg>
